<?xml version="1.0" encoding="utf-8"?>
<!-- Generator: Adobe Illustrator 27.7.0, SVG Export Plug-In . SVG Version: 6.00 Build 0)  -->
<svg version="1.1" id="Layer_1" xmlns="http://www.w3.org/2000/svg" xmlns:xlink="http://www.w3.org/1999/xlink" x="0px" y="0px"
	 viewBox="0 0 512 512" style="enable-background:new 0 0 512 512;" xml:space="preserve">
<style type="text/css">
	.st0{fill:#FFFFFF;}
</style>
<path class="st0" d="M240,0.1c10.7,0,21.3,0,32,0c8.7,1.1,17.5,2,26.1,3.5c48.1,8.2,90.6,28.3,127,60.7
	c44.5,39.6,72.4,88.8,82.8,147.6c1.7,9.3,2.6,18.7,3.9,28.1v32c-0.3,1.3-0.7,2.5-0.8,3.9c-3,39.5-14.3,76.4-35,110.2
	c-40.6,66.5-99.3,107.5-176.1,121.9c-9.3,1.8-18.7,2.6-28.1,3.9h-32c-6.2-0.8-12.5-1.4-18.7-2.3c-50.9-7.3-95.9-27.7-134.4-61.9
	c-44.5-39.5-72.2-88.6-82.8-147.1c-1.7-9.5-2.7-19.1-4-28.6c0-10.7,0-21.3,0-32c1.1-8.6,2-17.1,3.4-25.6
	c9.1-53.2,32.4-99.3,70.3-137.7C112.1,37.8,158.2,13.5,211.9,4C221.2,2.4,230.6,1.4,240,0.1z M234.8,197.1L234.8,197.1
	c0,22.2,0.1,44.3-0.1,66.5c-0.1,8.2,2.6,14.7,8.4,20.5c34.1,33.8,67.9,67.8,101.8,101.7c1.5,1.5,3,3.1,4.8,4.4
	c9.5,7.3,23.1,5.4,30.1-4.3c6.6-9.1,5.4-20.1-3.4-28.9c-31.9-32-63.8-63.9-95.8-95.7c-2.4-2.4-3.5-4.8-3.5-8.3
	c0.1-21.7,0.1-43.3,0.1-65c0-19.5-0.1-39,0-58.5c0-6.7-1.8-12.6-6.8-17.1c-6.7-6-14.5-7.4-22.8-3.9c-8.2,3.5-12.8,10-12.9,19.1
	C234.7,150.8,234.8,173.9,234.8,197.1L234.8,197.1z"/>
</svg>
